<svg width="20" height="20" viewBox="0 0 20 20" fill="none" xmlns="http://www.w3.org/2000/svg">
<path d="M10 0C4.47711 0 0 4.47711 0 10C0 15.5229 4.47711 20 10 20C15.5229 20 20 15.5229 20 10C20 4.47711 15.5229 0 10 0Z" fill="#40B3E0"/>
<path d="M14.8659 5.75234L13.0797 14.7577C13.0797 14.7577 12.8299 15.3823 12.143 15.0825L8.02127 11.9225L6.52252 11.1981L3.99955 10.3487C3.99955 10.3487 3.61236 10.2114 3.57486 9.91164C3.53736 9.61187 4.01205 9.44953 4.01205 9.44953L14.0414 5.51516C14.0414 5.51516 14.8658 5.15297 14.8658 5.7525" fill="white"/>
<path d="M7.70449 14.6565C7.70449 14.6565 7.58418 14.6452 7.43418 14.1705C7.28441 13.6959 6.52246 11.198 6.52246 11.198L12.5801 7.35109C12.5801 7.35109 12.9299 7.13875 12.9174 7.35109C12.9174 7.35109 12.9798 7.38859 12.7924 7.56344C12.6051 7.73836 8.03379 11.8475 8.03379 11.8475" fill="#D2E5F1"/>
<path d="M9.6017 13.134L7.97146 14.6204C7.97146 14.6204 7.84396 14.7171 7.70459 14.6565L8.01678 11.8955" fill="#B5CFE4"/>
</svg>
