<svg width="20" height="20" viewBox="0 0 20 20" fill="none" xmlns="http://www.w3.org/2000/svg">
<path d="M10 0.400002C4.69802 0.400002 0.400024 4.698 0.400024 10C0.400024 15.302 4.69802 19.6 10 19.6C15.302 19.6 19.6 15.302 19.6 10C19.6 4.698 15.302 0.400002 10 0.400002ZM13.692 11.231C13.692 11.231 14.541 12.069 14.75 12.458C14.756 12.466 14.759 12.474 14.761 12.478C14.846 12.621 14.866 12.732 14.824 12.815C14.754 12.953 14.514 13.021 14.432 13.027H12.932C12.828 13.027 12.61 13 12.346 12.818C12.143 12.676 11.943 12.443 11.748 12.216C11.457 11.878 11.205 11.586 10.951 11.586C10.9188 11.5859 10.8867 11.591 10.856 11.601C10.664 11.663 10.418 11.937 10.418 12.667C10.418 12.895 10.238 13.026 10.111 13.026H9.42402C9.19002 13.026 7.97102 12.944 6.89102 11.805C5.56902 10.41 4.37902 7.612 4.36902 7.586C4.29402 7.405 4.44902 7.308 4.61802 7.308H6.13302C6.33502 7.308 6.40102 7.431 6.44702 7.54C6.50102 7.667 6.69902 8.172 7.02402 8.74C7.55102 9.666 7.87402 10.042 8.13302 10.042C8.18159 10.0414 8.22929 10.0291 8.27202 10.006C8.61002 9.818 8.54702 8.613 8.53202 8.363C8.53202 8.316 8.53102 7.824 8.35802 7.588C8.23402 7.417 8.02302 7.352 7.89502 7.328C7.94683 7.25651 8.01509 7.19855 8.09402 7.159C8.32602 7.043 8.74403 7.026 9.15903 7.026H9.39003C9.84003 7.032 9.95603 7.061 10.119 7.102C10.449 7.181 10.456 7.394 10.427 8.123C10.418 8.33 10.409 8.564 10.409 8.84C10.409 8.9 10.406 8.964 10.406 9.032C10.396 9.403 10.384 9.824 10.646 9.997C10.6802 10.0184 10.7197 10.0299 10.76 10.03C10.851 10.03 11.125 10.03 11.867 8.757C12.0959 8.34726 12.2947 7.92148 12.462 7.483C12.477 7.457 12.521 7.377 12.573 7.346C12.6114 7.32644 12.654 7.31649 12.697 7.317H14.478C14.672 7.317 14.805 7.346 14.83 7.421C14.874 7.54 14.822 7.903 14.009 9.004L13.646 9.483C12.909 10.449 12.909 10.498 13.692 11.231V11.231Z" fill="#1877F2"/>
</svg>
