<svg width="20" height="20" viewBox="0 0 20 20" fill="none" xmlns="http://www.w3.org/2000/svg">
<g clip-path="url(#clip0_22_7)">
<path d="M5.22578 17.1292L5.54895 17.2908C6.89566 18.0988 8.40385 18.4758 9.91211 18.4758C14.6523 18.4758 18.5306 14.5975 18.5306 9.85738C18.5306 7.59506 17.6148 5.38657 15.9989 3.77058C14.3829 2.1546 12.2283 1.23892 9.91211 1.23892C5.17196 1.23892 1.29358 5.11722 1.34748 9.91128C1.34748 11.5272 1.83227 13.0893 2.64022 14.4359L2.85566 14.7592L1.99389 17.9372L5.22578 17.1292Z" fill="#00E676"/>
<path d="M16.9146 2.90873C15.0832 1.02347 12.5515 0 9.96595 0C4.47174 0 0.0547541 4.47081 0.108576 9.9112C0.108576 11.6349 0.593364 13.3048 1.40139 14.813L0.000854492 19.9302L5.2258 18.5836C6.68016 19.3916 8.29607 19.7686 9.91213 19.7686C15.3525 19.7686 19.7695 15.2978 19.7695 9.85745C19.7695 7.21799 18.746 4.74015 16.9147 2.90873H16.9146ZM9.96595 18.0988C8.51159 18.0988 7.05722 17.7219 5.81831 16.9677L5.49514 16.8061L2.37097 17.6141L3.17892 14.5438L2.96348 14.2205C0.593364 10.3961 1.72456 5.33266 5.60286 2.96255C9.48116 0.59251 14.4907 1.72371 16.8608 5.60201C19.2308 9.48031 18.0996 14.4898 14.2214 16.8599C12.9824 17.6679 11.4742 18.0988 9.96595 18.0988V18.0988ZM14.7061 12.1198L14.1136 11.8505C14.1136 11.8505 13.2518 11.4734 12.7131 11.2041C12.6592 11.2041 12.6054 11.1502 12.5515 11.1502C12.3899 11.1502 12.2822 11.2041 12.1744 11.258C12.1744 11.258 12.1206 11.3118 11.3665 12.1737C11.3126 12.2814 11.2049 12.3353 11.0971 12.3353H11.0432C10.9894 12.3353 10.8817 12.2814 10.8278 12.2276L10.5585 12.1198C9.96595 11.8505 9.42734 11.5273 8.99638 11.0964C8.88865 10.9886 8.72703 10.8809 8.61931 10.7732C8.24224 10.3961 7.86518 9.96517 7.59591 9.48039L7.54201 9.37266C7.48819 9.31876 7.48819 9.26494 7.43429 9.15722C7.43429 9.0495 7.43429 8.94178 7.48819 8.88788C7.48819 8.88788 7.70363 8.61853 7.86518 8.45699C7.97298 8.34919 8.0268 8.18764 8.13452 8.07992C8.24224 7.9183 8.29614 7.70286 8.24224 7.54124C8.18842 7.27189 7.54201 5.81753 7.38047 5.49436C7.27267 5.33274 7.16502 5.27892 7.0034 5.22502H6.41089C6.30309 5.22502 6.19545 5.27892 6.08765 5.27892L6.03375 5.33274C5.92603 5.38664 5.81831 5.49436 5.71058 5.54819C5.60286 5.65598 5.54896 5.76363 5.44124 5.87143C5.06418 6.35622 4.84873 6.94873 4.84873 7.54124C4.84873 7.97212 4.95645 8.40309 5.11807 8.78015L5.17197 8.94178C5.65676 9.96517 6.30309 10.8809 7.16502 11.6889L7.38047 11.9043C7.54201 12.0659 7.70363 12.1737 7.81136 12.3352C8.94255 13.3049 10.2353 14.0051 11.6897 14.3822C11.8513 14.436 12.0667 14.436 12.2283 14.4899H12.767C13.0363 14.4899 13.3595 14.3822 13.575 14.2744C13.7365 14.1667 13.8443 14.1667 13.952 14.059L14.0598 13.9512C14.1675 13.8435 14.2752 13.7897 14.3829 13.6819C14.4907 13.5742 14.5984 13.4665 14.6523 13.3587C14.76 13.1432 14.8138 12.8739 14.8677 12.6046V12.2276C14.8677 12.2276 14.8138 12.1737 14.7061 12.1198V12.1198Z" fill="white"/>
</g>
<defs>
<clipPath id="clip0_22_7">
<rect width="19.77" height="20" fill="white"/>
</clipPath>
</defs>
</svg>
