<svg width="56" height="55" viewBox="0 0 56 55" fill="none" xmlns="http://www.w3.org/2000/svg">
<path fill-rule="evenodd" clip-rule="evenodd" d="M32.2796 41.2498C33.5386 41.2498 34.5592 40.2238 34.5592 38.9581V34.3748C34.5592 33.1091 33.5386 32.0831 32.2796 32.0831C31.0206 32.0831 30 33.1091 30 34.3748V38.9581C30 40.2238 31.0206 41.2498 32.2796 41.2498ZM23.1624 41.2498C24.4214 41.2498 25.442 40.2238 25.442 38.9581V34.3748C25.442 33.1091 24.4214 32.0831 23.1624 32.0831C21.9034 32.0831 20.8828 33.1091 20.8828 34.3748V38.9581C20.8828 40.2238 21.9034 41.2498 23.1624 41.2498ZM43.6772 13.7501H40.5313L36.5876 5.84383C36.2591 5.05083 35.5171 4.50909 34.6653 4.44046C33.8136 4.37182 32.9952 4.78782 32.5452 5.5181C32.0953 6.24838 32.0894 7.17029 32.5299 7.90633L35.425 13.7501H20.0149L22.91 7.90633C23.369 6.79825 22.8997 5.52186 21.8342 4.98025C20.7686 4.43865 19.4679 4.81535 18.8523 5.84383L14.9086 13.7501H11.7627C8.43635 13.8009 5.62893 16.2508 5.11123 19.5544C4.59354 22.8581 6.51577 26.0569 9.6655 27.1334L11.3524 44.2292C11.7049 47.7554 14.666 50.4345 18.1912 50.4167H37.2943C40.8196 50.4345 43.7806 47.7554 44.1331 44.2292L45.82 27.1334C48.9771 26.0536 50.8991 22.8421 50.3691 19.5323C49.8392 16.2225 47.0119 13.7795 43.6772 13.7501ZM39.5503 43.7708C39.4328 44.9462 38.4458 45.8393 37.2707 45.8333H18.1677C16.9926 45.8393 16.0055 44.9462 15.8881 43.7708L14.2695 27.5H41.1689L39.5503 43.7708ZM43.6784 22.9165H11.764C10.505 22.9165 9.48438 21.8905 9.48438 20.6248C9.48438 19.3591 10.505 18.3331 11.764 18.3331H43.6784C44.9374 18.3331 45.958 19.3591 45.958 20.6248C45.958 21.8905 44.9374 22.9165 43.6784 22.9165Z" fill="#272525"/>
</svg>
